<?xml version="1.0" encoding="UTF-8" standalone="no"?>
<svg width="454px" height="454px" viewBox="0 0 454 454" version="1.1" xmlns="http://www.w3.org/2000/svg" xmlns:xlink="http://www.w3.org/1999/xlink">
    <!-- Generator: Sketch 42 (36781) - http://www.bohemiancoding.com/sketch -->
    <title>logo</title>
    <desc>Created with Sketch.</desc>
    <defs></defs>
    <g id="Page-1" stroke="none" stroke-width="1" fill="none" fill-rule="evenodd">
        <g id="logo" fill="#FFFFFF">
            <path d="M7,55.4392143 C7,31.5324843 18.819395,28.2074053 18.819395,39.2080158 C18.819395,50.2086263 39.9590305,81.1067138 121.523869,94.0922644 C203.088708,107.077815 216.913868,156.679509 216.913868,156.679509 C216.913868,156.679509 250.21862,103.113588 316.892702,92.2728357 C383.566784,81.432083 416.100054,48.5710573 416.100054,34.0769663 C416.100054,19.5828752 433.805065,19.5443442 433.805065,76.2331296 C433.805065,132.921915 401.772931,214.392578 272.01967,247.664127 C238.49767,275.046849 452.476562,456.598665 452.476562,456.598665 L174.288911,452.793725 C174.288911,452.793725 167.574282,326.460502 193.004765,254.43443 C125.225464,226.910427 7,198.459995 7,55.4392143 Z" id="Path"></path>
        </g>
    </g>
</svg>